<svg width="18" height="14" viewBox="0 0 18 14" fill="none" xmlns="http://www.w3.org/2000/svg">
<path d="M0.245902 11.7374C0.245902 11.7845 0.196721 11.7845 0.147541 11.7845H0.0983608C0.0491805 11.7374 0 11.6902 0 11.6431V4.3367C0 4.28956 0.0491805 4.24242 0.0983608 4.19529C0.147541 4.19529 0.196721 4.19529 0.245902 4.19529L5.31147 6.97643C5.36066 7.02357 5.36066 7.07071 5.36066 7.11785C5.36066 7.16498 5.36066 7.21212 5.31147 7.21212L0.245902 11.7374ZM17.3115 13.7643C17.3607 13.8114 17.3607 13.8586 17.3607 13.9057C17.3115 13.9529 17.2623 14 17.2131 14H0.590164C0.491803 14 0.393443 13.9529 0.295082 13.9057C0.245902 13.8586 0.196721 13.8586 0.196721 13.8114C0.196721 13.7643 0.196721 13.7172 0.245902 13.7172L6.68852 7.96633C6.7377 7.91919 6.78688 7.91919 6.83607 7.96633L8.55738 8.90909C8.80328 9.0505 9.04918 9.0505 9.29508 8.90909L11.2623 7.82492C11.3607 7.77778 11.4098 7.77778 11.4098 7.82492L17.3115 13.7643ZM17.9016 4.10101C17.9508 4.14815 18 4.14815 18 4.24242V11.9259C18 11.9731 17.9508 12.0202 17.9016 12.0673H17.8525C17.8033 12.0673 17.7541 12.0673 17.7541 12.0202L12.8852 7.07071C12.8361 7.02357 12.8361 6.97643 12.8361 6.97643C12.8361 6.92929 12.8361 6.88215 12.8852 6.88215L17.7049 4.14815C17.7541 4.10101 17.8033 4.10101 17.9016 4.10101ZM17.3607 0C17.5574 0 17.7049 0.0471381 17.8033 0.141414C17.9016 0.23569 17.9508 0.377104 17.9508 0.565656V2.30976C17.9508 2.40404 17.9016 2.45118 17.8033 2.45118C17.7049 2.45118 17.6557 2.49832 17.6066 2.54545L9.09836 7.35354C9.09836 7.35354 9.04918 7.35354 9 7.35354C8.95082 7.35354 8.95082 7.35354 8.90164 7.35354L0.147541 2.54545C0.0491804 2.49832 0.0491803 2.45118 0.0491803 2.40404V0.565656C0.0491803 0.424242 0.0983607 0.282828 0.196721 0.141414C0.295082 0.0471381 0.442623 0 0.590164 0H17.3607Z" fill="#C4C4C4"/>
</svg>
