<svg xmlns="http://www.w3.org/2000/svg" version="1" width="50" height="50" viewBox="0 0 283.000000 298.000000" preserveAspectRatio="xMidYMid meet"><title>Logo</title><g transform="translate(0.000000,298.000000) scale(0.100000,-0.100000)" stroke="none"><path d="M1000 2506 l0 -236 264 0 c286 0 370 -9 485 -55 249 -97 421 -297 487 -565 17 -71 17 -269 0 -340 -55 -221 -177 -390 -366 -505 -159 -96 -263 -115 -621 -115 l-249 0 0 -235 0 -235 279 0 c366 0 475 16 670 97 208 86 404 240 541 427 210 287 285 675 199 1035 -57 236 -171 435 -350 607 -174 167 -335 257 -579 321 -90 24 -112 26 -427 30 l-333 5 0 -236z" fill="#263272"></path><path d="M330 2500 l0 -230 250 0 250 0 0 230 0 230 -250 0 -250 0 0 -230z" fill="#e65100"></path><path d="M330 1150 l0 -930 250 0 250 0 0 930 0 930 -250 0 -250 0 0 -930z" fill="#26c6da"></path></g></svg>